<?xml version="1.0" standalone="no"?>
<!DOCTYPE svg PUBLIC "-//W3C//DTD SVG 20010904//EN"
 "http://www.w3.org/TR/2001/REC-SVG-20010904/DTD/svg10.dtd">
<svg version="1.0" xmlns="http://www.w3.org/2000/svg"
 width="299.000000pt" height="299.000000pt" viewBox="0 0 299.000000 299.000000"
 preserveAspectRatio="xMidYMid meet">

<g transform="translate(0.000000,299.000000) scale(0.100000,-0.100000)"
fill="#000000" stroke="none">
<path d="M1290 2754 c-177 -28 -364 -103 -520 -207 -96 -64 -273 -241 -337
-337 -95 -142 -163 -302 -199 -470 -26 -120 -26 -382 0 -500 56 -258 169 -466
355 -651 157 -157 300 -246 504 -314 311 -103 670 -78 962 67 239 120 459 338
577 573 96 189 132 349 132 575 0 183 -14 271 -66 420 -68 191 -156 330 -307
481 -181 182 -382 293 -631 350 -118 27 -345 33 -470 13z m470 -123 c243 -65
419 -167 580 -337 295 -311 397 -763 264 -1169 -116 -351 -402 -637 -749 -748
-148 -47 -183 -52 -365 -52 -182 0 -217 5 -365 52 -331 106 -623 388 -736 711
-62 178 -85 397 -59 573 70 481 456 887 930 978 30 6 64 13 75 15 11 3 94 3
185 1 125 -2 183 -8 240 -24z"/>
<path d="M1430 2222 c-49 -24 -80 -88 -80 -168 0 -115 -47 -208 -144 -285
l-49 -39 -31 31 c-42 43 -63 49 -175 49 -116 0 -152 -17 -188 -90 -23 -44 -23
-50 -23 -435 0 -233 4 -405 10 -427 15 -53 77 -105 135 -114 70 -10 169 1 207
23 18 10 42 35 53 55 l20 35 45 -19 c137 -59 329 -91 555 -92 l170 -1 67 33
c72 35 116 83 143 156 8 23 33 151 55 285 35 209 39 252 30 293 -21 98 -83
178 -170 217 -40 18 -66 21 -218 21 l-174 0 9 43 c4 23 8 94 8 157 0 105 -2
119 -27 166 -32 61 -75 99 -126 114 -50 14 -61 13 -102 -8z m110 -122 c57 -61
63 -203 14 -326 -13 -33 -24 -69 -24 -80 0 -41 15 -44 225 -44 115 0 217 -5
240 -11 51 -14 109 -73 126 -127 11 -39 9 -67 -25 -275 -40 -245 -56 -296
-102 -338 -43 -39 -85 -49 -213 -49 -210 0 -393 31 -537 91 l-74 31 0 318 0
319 47 33 c75 51 165 149 196 212 21 43 31 82 37 150 5 51 12 100 16 109 10
26 43 20 74 -13z m-498 -407 c17 -15 18 -41 18 -414 0 -348 -2 -400 -16 -413
-11 -12 -35 -16 -86 -16 -116 0 -108 -34 -108 431 l0 398 22 15 c32 22 145 22
170 -1z"/>
</g>
</svg>
